<svg id="logo" width="100" height="130" viewBox="0 0 58.712 71.4" xmlns="http://www.w3.org/2000/svg" style="transform: rotate(-25deg)">
    <g id="svgGroup" stroke-linecap="round" fill-rule="evenodd" font-size="9pt" stroke="none" stroke-width="0.25mm"
       fill="none" style="stroke-width:0.25mm;">
        <defs>
            <linearGradient id="logo-gradient-fill">
                <stop offset="0%" stop-color="#4f9052" stop-opacity="1" />
                <stop offset="100%" stop-color="white" stop-opacity="1" />
            </linearGradient>
        </defs>
        <path fill="none" d="M 48.6 37 L 34.1 61.7 Q 33.7 62.2 32.95 63.5 A 63.155 63.155 0 0 1 31.794 65.421 A 73.664 73.664 0 0 1 31.3 66.2 A 14.426 14.426 0 0 1 28.394 69.041 A 17.335 17.335 0 0 1 27.2 69.85 A 13.318 13.318 0 0 1 25.613 70.701 Q 24.779 71.072 24.009 71.246 A 5.93 5.93 0 0 1 22.7 71.4 A 3.93 3.93 0 0 1 22.686 71.4 Q 21.899 71.397 21.581 71.082 A 0.689 0.689 0 0 1 21.45 70.9 Q 21.2 70.4 21.15 69.55 Q 21.1 68.7 21.1 68.2 A 173.596 173.596 0 0 0 20.727 61.04 Q 20.113 52.369 18.6 40.2 Q 16.941 26.856 15.112 19.139 A 60.105 60.105 0 0 0 13.9 14.7 A 23.113 23.113 0 0 0 13.405 13.653 Q 13.136 13.122 12.873 12.684 A 9.287 9.287 0 0 0 12.35 11.9 A 2.388 2.388 0 0 0 11.002 11.019 Q 10.594 10.911 10.103 10.901 A 4.99 4.99 0 0 0 10 10.9 A 4.523 4.523 0 0 0 6.725 12.287 A 6.704 6.704 0 0 0 6.1 13 A 18.466 18.466 0 0 0 5.071 14.518 Q 3.906 16.413 2.6 19.3 Q 2.215 20.146 1.919 20.578 A 2.387 2.387 0 0 1 1.75 20.8 Q 1.4 21.2 0.8 21.2 A 0.639 0.639 0 0 1 0.203 20.806 Q 0.045 20.496 0.01 19.939 A 5.386 5.386 0 0 1 0 19.6 A 19.09 19.09 0 0 1 0.84 14.108 A 24.979 24.979 0 0 1 2.15 10.7 A 23.374 23.374 0 0 1 5.768 5.108 A 21.051 21.051 0 0 1 7.85 3.05 A 13.499 13.499 0 0 1 11.002 0.992 A 10.656 10.656 0 0 1 15.5 0 A 7.471 7.471 0 0 1 20.891 2.241 A 9.566 9.566 0 0 1 20.9 2.25 A 9.912 9.912 0 0 1 22.312 4.035 Q 23.54 5.971 24.564 9.045 A 41.022 41.022 0 0 1 24.9 10.1 A 72.083 72.083 0 0 1 26.384 15.72 Q 27.714 21.619 28.764 29.735 A 254.366 254.366 0 0 1 29.1 32.45 A 287.784 287.784 0 0 1 30.136 42.671 Q 30.8 50.738 30.8 57.3 A 294.458 294.458 0 0 0 35.953 48.429 Q 38.181 44.423 39.968 40.853 A 126.938 126.938 0 0 0 43.1 34.15 Q 45.747 27.986 46.685 23.092 A 26.621 26.621 0 0 0 47.2 18.1 A 20.595 20.595 0 0 0 47.137 16.427 Q 47.001 14.762 46.571 13.684 A 4.959 4.959 0 0 0 46.4 13.3 Q 45.6 11.7 44.2 10.6 A 0.395 0.395 0 0 1 44.098 10.403 Q 43.938 9.698 45.3 7.4 Q 46.9 4.7 49.2 2.35 Q 51.04 0.471 52.495 0.094 A 2.813 2.813 0 0 1 53.2 0 A 2.781 2.781 0 0 1 54.545 0.364 Q 54.977 0.6 55.404 0.989 A 6.771 6.771 0 0 1 55.95 1.55 A 9.518 9.518 0 0 1 57.279 3.563 A 13.04 13.04 0 0 1 58.05 5.5 A 14.635 14.635 0 0 1 58.712 9.891 A 15.844 15.844 0 0 1 58.7 10.5 A 19.822 19.822 0 0 1 58.393 13.399 Q 57.788 16.888 56 21.7 A 83.297 83.297 0 0 1 53.079 28.548 Q 51.15 32.591 48.6 37 Z" />
    </g>
</svg>
